<?xml version="1.0" standalone="no"?>
<!DOCTYPE svg PUBLIC "-//W3C//DTD SVG 20010904//EN"
 "http://www.w3.org/TR/2001/REC-SVG-20010904/DTD/svg10.dtd">
<svg version="1.0" xmlns="http://www.w3.org/2000/svg"
 width="291.000000pt" height="291.000000pt" viewBox="0 0 291.000000 291.000000"
 preserveAspectRatio="xMidYMid meet">
<metadata>
Created by potrace 1.15, written by Peter Selinger 2001-2017
</metadata>
<g transform="translate(0.000000,291.000000) scale(0.100000,-0.100000)"
fill="#000000" stroke="none">
<path d="M1403 2653 c-23 -49 -52 -115 -66 -148 -14 -33 -39 -87 -56 -120 -17
-34 -28 -68 -25 -80 4 -15 -4 -27 -25 -43 -22 -16 -31 -31 -31 -51 0 -24 -26
-61 -37 -53 -12 9 -25 -4 -43 -44 -16 -38 -23 -44 -34 -35 -16 14 -21 8 -30
-36 -4 -17 -14 -37 -22 -44 -8 -6 -14 -16 -14 -21 0 -16 -29 -40 -41 -32 -6 3
-15 0 -20 -7 -6 -10 -9 -4 -9 19 0 17 -4 32 -9 32 -5 0 -12 -15 -16 -32 -20
-104 -29 -140 -33 -130 -2 7 -10 12 -17 12 -9 0 -12 -12 -10 -37 1 -21 0 -26
-2 -10 -7 44 -21 31 -33 -30 -12 -58 -52 -144 -77 -164 -10 -9 -10 -3 2 24 18
43 18 47 4 47 -5 0 -24 -31 -42 -70 -17 -38 -37 -70 -43 -70 -7 0 -15 -18 -19
-40 -5 -31 -11 -40 -26 -40 -12 0 -23 -10 -29 -27 -6 -16 -15 -35 -20 -43 -6
-8 -14 -24 -20 -35 -5 -11 -18 -31 -29 -45 -19 -23 -21 -23 -21 -5 0 11 4 35
9 53 8 25 7 32 -4 32 -8 0 -20 -18 -26 -40 -7 -22 -15 -40 -19 -40 -4 0 -10
-12 -13 -27 -8 -47 -48 -147 -63 -159 -8 -6 -14 -14 -14 -17 0 -21 -97 -140
-122 -149 -8 -4 -20 -27 -27 -51 -6 -25 -29 -79 -51 -120 -44 -81 -44 -104 -1
-113 14 -3 44 -9 66 -14 22 -5 42 -6 45 -1 9 13 39 21 45 11 3 -5 29 -7 58 -5
29 3 96 7 150 10 126 5 154 11 160 36 4 16 9 18 32 9 51 -19 64 -13 90 41 18
39 21 57 14 76 -5 13 -9 27 -9 31 0 13 143 157 176 177 18 11 47 32 66 47 47
38 169 53 348 43 220 -11 357 -3 378 23 11 15 20 8 80 -53 37 -38 57 -61 45
-50 -31 24 -29 11 3 -31 19 -25 37 -36 65 -40 39 -7 39 -7 39 -53 l1 -46 40
43 c37 39 45 43 81 40 l40 -3 -55 -70 -55 -70 37 -53 c37 -54 61 -67 111 -60
16 2 28 0 27 -5 -1 -5 13 -14 30 -21 18 -6 40 -21 48 -34 25 -35 121 -73 139
-55 4 4 16 8 28 10 33 5 83 38 80 53 -2 9 7 11 37 6 51 -8 156 3 179 20 16 12
16 14 -2 48 -15 29 -22 34 -33 24 -12 -10 -13 -7 -7 16 4 18 1 33 -8 44 -8 9
-18 25 -21 35 -4 9 -13 17 -22 17 -8 0 -15 5 -15 11 0 5 5 7 12 3 7 -4 8 -3 4
5 -4 6 -12 8 -18 5 -7 -4 -8 -2 -4 4 8 13 -22 82 -35 82 -5 0 -9 7 -9 15 0 8
-4 15 -10 15 -18 0 -10 -39 13 -61 12 -12 16 -19 10 -15 -9 5 -15 -6 -19 -34
-7 -44 -51 -100 -79 -100 -23 0 -13 41 23 95 30 46 33 81 15 220 -12 89 -47
195 -65 195 -6 0 -7 -21 -3 -52 l6 -53 -29 51 c-16 29 -39 66 -52 84 -12 17
-25 52 -28 76 -5 45 -10 52 -28 34 -8 -8 -15 -6 -24 5 -7 8 -20 15 -29 15 -9
0 -39 29 -66 65 -28 35 -54 63 -60 61 -13 -4 -73 69 -90 110 -7 18 -11 42 -8
54 4 14 1 20 -8 18 -8 -2 -20 18 -32 55 -19 60 -44 80 -34 27 9 -41 -1 -64
-19 -49 -8 6 -14 8 -14 3 0 -4 -11 3 -25 16 -39 37 -29 10 13 -34 24 -26 30
-36 17 -31 -11 4 -34 10 -51 12 -25 4 -35 13 -49 42 -18 41 -25 129 -10 121 6
-3 9 -10 9 -17 -1 -7 1 -11 5 -10 3 1 26 -18 49 -43 38 -39 41 -40 19 -10 -13
19 -33 55 -44 80 -11 25 -28 54 -39 64 -27 27 -79 110 -119 193 -20 40 -39 72
-43 70 -4 -1 -25 17 -46 41 -34 37 -67 58 -51 32 3 -5 -1 -20 -9 -32 -9 -12
-16 -29 -16 -37 0 -8 -10 -25 -21 -37 -12 -13 -27 -32 -33 -43 -49 -84 -94
-150 -100 -144 -4 4 -4 0 -1 -9 4 -9 2 -19 -4 -23 -12 -7 -13 -3 -15 80 -1 42
3 64 14 73 13 11 12 11 -7 3 -14 -7 -24 -7 -28 -1 -3 5 -12 7 -20 3 -8 -3 -15
0 -15 6 0 6 -4 10 -8 9 -5 -2 -21 11 -36 29 -15 18 -32 31 -39 29 -7 -1 -9 -1
-4 1 10 7 9 41 -4 64 -5 11 -14 17 -19 14 -18 -11 -20 14 -2 32 9 10 24 27 32
37 13 18 13 19 0 12 -8 -5 7 12 33 37 30 29 59 71 79 114 17 37 33 63 35 57 4
-13 43 -7 43 7 0 5 -7 6 -16 2 -14 -5 -16 -1 -12 22 3 16 -2 44 -12 67 l-17
38 -40 -87z m348 -533 c19 -54 24 -82 19 -106 -4 -17 -6 -48 -5 -68 2 -20 -1
-36 -6 -36 -6 0 -7 6 -3 13 5 8 3 8 -9 -2 -14 -11 -22 -11 -51 3 -19 9 -39 16
-45 16 -29 0 -60 25 -66 54 -15 76 -16 94 -6 100 6 4 11 18 11 32 0 13 3 24 8
24 16 0 32 -17 29 -31 -2 -8 -2 -11 0 -6 3 4 13 7 24 7 19 0 19 1 3 25 -9 14
-14 29 -10 33 4 3 10 1 15 -6 5 -8 12 -6 24 9 10 11 23 19 29 17 7 -3 24 -37
39 -78z m-241 -339 c0 -5 17 -28 39 -52 35 -40 37 -44 25 -68 -8 -14 -18 -49
-24 -78 -8 -36 -21 -63 -41 -83 -29 -28 -34 -30 -96 -26 -36 3 -77 0 -89 -5
-19 -7 -24 -5 -24 7 0 11 -5 14 -17 9 -34 -12 -73 -17 -73 -9 0 5 14 36 30 69
26 51 40 67 99 105 39 25 68 51 66 57 -2 7 8 19 23 27 15 8 36 23 46 35 20 22
36 27 36 12z m119 -156 c1 -5 -4 -3 -9 5 -14 22 -12 4 4 -35 18 -41 30 -47 15
-7 -9 24 -9 25 5 12 19 -19 31 -80 15 -80 -24 0 0 -80 31 -107 35 -29 39 -58
10 -73 -11 -6 -17 -16 -14 -22 5 -7 15 -2 30 16 l23 27 42 -31 c23 -16 39 -30
35 -30 -3 0 0 -13 9 -30 9 -17 11 -30 5 -30 -17 0 -11 -17 17 -52 l27 -33 -28
25 c-15 14 -43 54 -62 90 -18 36 -33 58 -34 50 0 -13 -1 -13 -10 0 -7 11 -10
6 -10 -20 0 -19 -5 -42 -10 -50 -8 -12 -10 -9 -10 13 0 15 -5 27 -11 27 -5 0
-9 -8 -8 -17 5 -42 -11 -53 -72 -53 -33 0 -69 -6 -80 -12 -17 -10 -23 -10 -26
0 -3 6 -12 12 -21 12 -15 0 -15 -2 -2 -10 12 -8 11 -10 -7 -10 -13 0 -23 5
-23 10 0 6 -10 10 -22 10 -19 0 -20 -2 -8 -10 24 -16 -69 -11 -115 5 -22 8
-48 15 -57 15 -33 0 -27 18 15 46 23 16 54 34 70 41 15 7 32 24 37 38 16 43
53 85 74 85 16 0 17 -3 8 -12 -23 -23 -12 -29 15 -9 14 12 40 21 57 21 46 0
105 11 112 21 3 5 1 9 -4 9 -12 0 -24 36 -27 80 -1 19 -7 48 -13 63 -15 35
-15 40 -1 31 8 -4 9 1 5 17 -7 24 -7 24 8 -1 9 -14 15 -29 15 -35z"/>
<path d="M1398 919 c-8 -34 -10 -317 -3 -340 5 -16 16 -19 66 -19 37 0 59 4
59 11 0 8 4 8 13 1 37 -30 132 -24 142 9 9 28 -4 60 -23 58 -74 -7 -86 -1
-119 59 l-33 57 0 -57 0 -58 -40 0 -40 0 0 100 0 99 68 3 c59 3 67 5 67 23 0
17 -8 21 -63 25 -54 4 -66 9 -76 29 l-13 24 -5 -24z"/>
<path d="M1926 933 c-3 -3 -6 -34 -6 -68 0 -60 0 -61 88 -183 82 -114 89 -122
127 -127 22 -4 53 -2 68 4 24 9 28 16 25 43 -3 31 -5 32 -53 35 -27 2 -55 9
-62 16 -6 6 -46 59 -87 117 -50 69 -76 113 -76 132 0 27 -12 43 -24 31z"/>
<path d="M920 785 c-18 -38 -39 -87 -47 -107 -14 -35 -19 -38 -53 -38 -22 0
-40 5 -43 13 -8 22 -30 -41 -23 -67 6 -24 10 -26 66 -26 l61 0 35 78 35 77 32
-74 c36 -82 59 -99 122 -87 37 7 50 29 40 68 -5 21 -12 24 -56 23 l-50 0 -44
105 -43 105 -32 -70z"/>
<path d="M665 530 c-3 -5 -8 -61 -10 -124 -5 -147 -5 -147 113 -145 54 1 96 7
110 16 16 10 27 11 41 3 30 -15 59 -12 65 8 3 9 1 35 -5 57 -16 64 -16 70 9
73 21 3 22 0 22 -62 0 -68 14 -96 49 -96 31 0 41 22 41 92 0 54 3 68 15 68 12
0 15 -14 15 -69 0 -81 14 -101 59 -84 19 7 34 7 46 1 27 -16 65 6 65 38 l0 26
41 -36 c44 -41 68 -43 84 -9 l11 22 22 -21 c25 -25 117 -37 151 -19 22 12 28
51 15 99 -6 20 -12 22 -53 20 -35 -2 -46 0 -46 12 0 17 66 32 103 23 20 -5 22
-11 22 -72 0 -69 10 -91 41 -91 34 0 51 30 49 84 -3 67 -2 76 10 76 6 0 10
-28 10 -64 0 -45 5 -69 16 -80 30 -30 74 -13 74 28 1 19 1 19 11 3 36 -61 182
-61 218 0 9 16 10 16 11 -4 0 -43 59 -40 79 4 l12 26 37 -36 c66 -65 92 -47
92 64 0 93 -10 169 -21 169 -5 0 -9 -51 -10 -112 0 -92 -2 -109 -12 -93 -7 11
-36 44 -64 75 l-53 55 0 -41 c0 -22 -7 -49 -15 -60 -13 -17 -14 -10 -14 76 l0
95 64 -70 65 -69 0 59 c0 75 -14 103 -25 49 l-7 -38 -40 43 c-44 46 -71 50
-76 11 -5 -35 -19 -46 -27 -21 -9 29 -56 51 -107 51 -51 -1 -86 -18 -104 -51
l-13 -24 -1 26 c0 15 -6 31 -12 37 -8 6 -84 10 -182 10 l-169 1 -29 -29 c-22
-22 -30 -26 -33 -15 -3 8 -7 22 -10 31 -3 10 -14 14 -32 12 -21 -2 -29 -9 -31
-28 -6 -50 -11 -51 -48 -10 -47 52 -83 55 -85 8 -1 -23 -3 -26 -6 -11 -2 12
-10 26 -17 32 -10 8 -12 -5 -11 -67 3 -84 -2 -122 -16 -122 -5 0 -9 38 -9 84
0 106 -8 116 -93 116 -71 0 -94 -14 -131 -75 l-24 -39 25 -43 c14 -24 21 -43
16 -43 -14 0 -39 22 -51 44 -9 18 -11 17 -25 -10 -17 -34 -54 -70 -63 -61 -3
3 10 29 30 58 l35 52 -26 44 c-31 54 -21 70 16 25 l27 -33 26 40 c20 30 23 41
12 41 -7 0 -19 -9 -26 -19 -12 -19 -12 -19 -26 0 -15 22 -69 23 -65 2 4 -17
-35 -37 -72 -38 -20 0 -31 -7 -33 -18 -3 -14 4 -17 33 -17 46 0 43 -24 -3 -28
-28 -3 -32 -7 -32 -33 0 -27 2 -29 41 -29 28 0 39 -4 37 -12 -3 -8 -23 -13
-54 -13 l-49 0 0 90 0 90 58 3 c31 2 57 7 57 12 0 13 -127 13 -135 0z m707
-75 c2 36 8 60 16 63 9 3 12 -22 11 -105 0 -88 -2 -104 -12 -88 -7 11 -36 44
-64 75 l-53 55 0 -63 c0 -46 -3 -63 -12 -60 -9 3 -14 34 -16 99 l-3 94 65 -64
65 -64 3 58z m669 36 c62 -63 19 -161 -71 -161 -55 0 -100 44 -100 97 0 51 45
93 100 93 33 0 48 -6 71 -29z"/>
<path d="M1920 470 c-43 -43 -10 -110 54 -110 59 0 88 68 46 110 -11 11 -33
20 -50 20 -17 0 -39 -9 -50 -20z"/>
</g>
</svg>
